<svg width="480" height="268" viewBox="0 0 480 268" fill="none" xmlns="http://www.w3.org/2000/svg">
<rect width="480" height="267.692" fill="white"/>
<path d="M312.845 61.6043L335.461 71.2678L367.718 62.5476L368.006 29.1969L388.776 37.8548L388.588 56.9057L415.146 49.7265L438.969 59.6609L455.89 55.0532L456.115 38.6511L478.026 32.7281L477.78 49.0925L480.001 48.488L478.167 154.294L437.416 165.985L413.767 155.59L334.635 178.129L312.183 168.018L304.308 115.928L304.9 11.8262L312.845 61.6043Z" fill="#E7ECF1"/>
<path d="M312.845 61.6043L335.461 71.2678L367.718 62.5476L368.006 29.1969L388.776 37.8548L388.588 56.9057L415.146 49.7265L438.969 59.6609L455.89 55.0532L456.115 38.6511L478.026 32.7281L477.78 49.0925L480.001 48.488L478.167 154.294L437.416 165.985L413.767 155.59L334.635 178.129L312.183 168.018L304.308 115.928L304.9 11.8262L312.845 61.6043Z" fill="url(#paint0_linear)" fill-opacity="0.6"/>
<path d="M312.562 82.5882L312.502 83.9274L312.495 94.9444L312.562 82.5882Z" fill="#E7ECF1"/>
<path d="M312.562 82.5882L312.502 83.9274L312.495 94.9444L312.562 82.5882Z" fill="url(#paint1_linear)" fill-opacity="0.6"/>
<path d="M261.482 85.4165L261.423 84.57L261.452 97.786L261.482 85.4165Z" fill="#E7ECF1"/>
<path d="M261.482 85.4165L261.423 84.57L261.452 97.786L261.482 85.4165Z" fill="url(#paint2_linear)" fill-opacity="0.6"/>
<path d="M122.616 180.636L122.999 182.093L123.345 183.222L124.012 184.68L125.066 186.383L126.429 188.041L127.773 189.531L129.312 191.023L131.046 192.518L132.975 194.015L135.101 195.515L137.423 197.017L139.941 198.522L142.657 200.029L145.57 201.539L148.681 203.051L151.918 204.531L155.208 205.946L158.552 207.294L161.949 208.577L165.398 209.792L168.901 210.941L172.457 212.024L176.064 213.039L179.724 213.986L183.436 214.867L187.199 215.68L191.014 216.425L194.863 217.077L198.714 217.659L202.565 218.17L206.417 218.612L210.269 218.983L214.122 219.283L217.973 219.513L221.824 219.672L225.674 219.76L229.522 219.778L233.368 219.726L237.212 219.602L241.034 219.41L244.812 219.152L248.546 218.828L252.237 218.437L255.883 217.981L259.485 217.458L263.042 216.869L266.555 216.215L270.022 215.495L273.443 214.709L276.819 213.857L280.149 212.941L283.336 211.986L286.358 211.001L289.214 209.985L291.906 208.939L294.432 207.861L296.793 206.753L298.989 205.615L301.02 204.446L302.887 203.247L304.589 202.018L306.127 200.758L307.502 199.469L308.698 198.157L309.705 196.83L310.522 195.488L311.149 194.131L311.587 192.76L311.836 191.374L312.361 119.604L312.428 107.283L312.495 94.9444L312.502 83.9274L312.252 85.2526L311.811 86.5637L311.18 87.8606L310.358 89.1433L309.344 90.4117L308.139 91.6658L306.755 92.8984L305.206 94.1023L303.492 95.2775L301.612 96.4238L299.566 97.5411L297.354 98.6293L294.977 99.6885L292.432 100.718L289.722 101.719L286.845 102.69L283.801 103.632L280.591 104.544L277.237 105.421L273.837 106.235L270.391 106.986L266.899 107.675L261.425 108.708L261.452 97.786L261.423 84.57L261.182 83.6907L260.746 82.7557L260.082 81.7871L259.192 80.7851L258.075 79.7496L256.732 78.6808L255.164 77.5788L253.37 76.4436L251.351 75.2755L249.108 74.0745L246.641 72.8407L243.95 71.5742L241.036 70.275L238.035 69.0024L235.083 67.8149L232.178 66.7123L229.321 65.6946L226.512 64.7612L218.362 62.4661L215.738 61.8687L213.159 61.3551L210.625 60.9249L208.136 60.5782L200.997 59.9014L198.723 59.8112L196.501 59.7887L194.33 59.8338L192.212 59.9466L186.165 60.6912L184.252 61.075L182.389 61.5266L180.605 62.0389L179.001 62.5853L177.738 63.0814L176.53 63.618L175.467 64.2269L174.9 64.65L174.378 65.112L173.672 65.8293L173.145 66.5809L172.799 67.367L172.633 68.1876L173.243 103.372L172.118 103.668L168.537 102.633L165.009 101.535L161.534 100.372L158.113 99.1465L154.745 97.8574L151.432 96.505L148.172 95.0898L145.039 93.6443L142.105 92.2012L139.37 90.7605L136.834 89.3222L134.496 87.8862L132.355 86.4526L130.412 85.0214L128.666 83.5924L127.116 82.1659L125.763 80.7417L124.606 79.3198L123.644 77.9001L122.883 76.4689L122.31 75.0567L121.925 73.6637L121.727 72.2897L121.716 70.9346L121.785 83.2363L121.855 95.5203L121.924 107.787L122.616 180.636Z" fill="#E7ECF1"/>
<path d="M122.616 180.636L122.999 182.093L123.345 183.222L124.012 184.68L125.066 186.383L126.429 188.041L127.773 189.531L129.312 191.023L131.046 192.518L132.975 194.015L135.101 195.515L137.423 197.017L139.941 198.522L142.657 200.029L145.57 201.539L148.681 203.051L151.918 204.531L155.208 205.946L158.552 207.294L161.949 208.577L165.398 209.792L168.901 210.941L172.457 212.024L176.064 213.039L179.724 213.986L183.436 214.867L187.199 215.68L191.014 216.425L194.863 217.077L198.714 217.659L202.565 218.17L206.417 218.612L210.269 218.983L214.122 219.283L217.973 219.513L221.824 219.672L225.674 219.76L229.522 219.778L233.368 219.726L237.212 219.602L241.034 219.41L244.812 219.152L248.546 218.828L252.237 218.437L255.883 217.981L259.485 217.458L263.042 216.869L266.555 216.215L270.022 215.495L273.443 214.709L276.819 213.857L280.149 212.941L283.336 211.986L286.358 211.001L289.214 209.985L291.906 208.939L294.432 207.861L296.793 206.753L298.989 205.615L301.02 204.446L302.887 203.247L304.589 202.018L306.127 200.758L307.502 199.469L308.698 198.157L309.705 196.83L310.522 195.488L311.149 194.131L311.587 192.76L311.836 191.374L312.361 119.604L312.428 107.283L312.495 94.9444L312.502 83.9274L312.252 85.2526L311.811 86.5637L311.18 87.8606L310.358 89.1433L309.344 90.4117L308.139 91.6658L306.755 92.8984L305.206 94.1023L303.492 95.2775L301.612 96.4238L299.566 97.5411L297.354 98.6293L294.977 99.6885L292.432 100.718L289.722 101.719L286.845 102.69L283.801 103.632L280.591 104.544L277.237 105.421L273.837 106.235L270.391 106.986L266.899 107.675L261.425 108.708L261.452 97.786L261.423 84.57L261.182 83.6907L260.746 82.7557L260.082 81.7871L259.192 80.7851L258.075 79.7496L256.732 78.6808L255.164 77.5788L253.37 76.4436L251.351 75.2755L249.108 74.0745L246.641 72.8407L243.95 71.5742L241.036 70.275L238.035 69.0024L235.083 67.8149L232.178 66.7123L229.321 65.6946L226.512 64.7612L218.362 62.4661L215.738 61.8687L213.159 61.3551L210.625 60.9249L208.136 60.5782L200.997 59.9014L198.723 59.8112L196.501 59.7887L194.33 59.8338L192.212 59.9466L186.165 60.6912L184.252 61.075L182.389 61.5266L180.605 62.0389L179.001 62.5853L177.738 63.0814L176.53 63.618L175.467 64.2269L174.9 64.65L174.378 65.112L173.672 65.8293L173.145 66.5809L172.799 67.367L172.633 68.1876L173.243 103.372L172.118 103.668L168.537 102.633L165.009 101.535L161.534 100.372L158.113 99.1465L154.745 97.8574L151.432 96.505L148.172 95.0898L145.039 93.6443L142.105 92.2012L139.37 90.7605L136.834 89.3222L134.496 87.8862L132.355 86.4526L130.412 85.0214L128.666 83.5924L127.116 82.1659L125.763 80.7417L124.606 79.3198L123.644 77.9001L122.883 76.4689L122.31 75.0567L121.925 73.6637L121.727 72.2897L121.716 70.9346L121.785 83.2363L121.855 95.5203L121.924 107.787L122.616 180.636Z" fill="url(#paint3_linear)" fill-opacity="0.6"/>
<path d="M176.609 176.591L176.412 176.541L176.611 240.806L132.828 253.366L109.693 242.198L24.6556 266.419L2.73533 255.552L1.1377 145.286L23.2134 155.678L63.2378 144.858L62.925 110.459L83.2277 119.76L83.3833 139.412L108.889 132.517L132.192 143.196L152.981 137.536L152.916 120.615L176.454 114.252L176.609 176.591Z" fill="#E7ECF1"/>
<path d="M176.609 176.591L176.412 176.541L176.611 240.806L132.828 253.366L109.693 242.198L24.6556 266.419L2.73533 255.552L1.1377 145.286L23.2134 155.678L63.2378 144.858L62.925 110.459L83.2277 119.76L83.3833 139.412L108.889 132.517L132.192 143.196L152.981 137.536L152.916 120.615L176.454 114.252L176.609 176.591Z" fill="url(#paint4_linear)" fill-opacity="0.6"/>
<path d="M438.969 59.6608L415.146 49.7263L413.767 155.59L437.416 165.985L438.969 59.6608Z" fill="white" fill-opacity="0.3"/>
<path d="M335.461 71.2677L312.845 61.6042L312.183 168.018L334.635 178.129L335.461 71.2677Z" fill="white" fill-opacity="0.3"/>
<path d="M1.1377 145.286L23.2134 155.678L24.6556 266.418L2.73533 255.551L1.1377 145.286Z" fill="white" fill-opacity="0.3"/>
<path d="M108.889 132.517L132.192 143.196L132.828 253.366L109.693 242.198L108.889 132.517Z" fill="white" fill-opacity="0.3"/>
<path d="M348.241 0.456909L304.899 11.8262L312.844 61.6043L348.241 0.456909Z" fill="#F8F9FA"/>
<path d="M428.394 27.2345L407.57 18.6583L388.775 37.8547L428.394 27.2345Z" fill="#F8F9FA"/>
<path d="M407.57 18.6583L368.005 29.1969L388.775 37.8547L407.57 18.6583ZM456.114 38.6511L450.266 21.3715L428.394 27.2345L456.114 38.6511Z" fill="#F8F9FA"/>
<path d="M456.114 38.651L478.025 32.728L450.266 21.3715L456.114 38.651Z" fill="#F8F9FA"/>
<path d="M358.436 45.9871L348.241 0.456909L312.844 61.6043L358.436 45.9871Z" fill="#F8F9FA"/>
<path d="M415.145 49.7266L428.394 27.2346L388.775 37.8548L415.145 49.7266ZM415.145 49.7266L456.115 38.6512L428.394 27.2346L415.145 49.7266Z" fill="#F8F9FA"/>
<path d="M212.103 43.4811L208.341 43.3949L204.58 43.3743L212.103 43.4811ZM204.58 43.3743L200.819 43.4191L197.059 43.5293L204.58 43.3743ZM212.103 43.4811L204.58 43.3743L197.059 43.5293L212.103 43.4811Z" fill="#F8F9FA"/>
<path d="M219.628 43.8498L215.864 43.6327L212.102 43.4811L219.628 43.8498Z" fill="#F8F9FA"/>
<path d="M197.057 43.5294L193.318 43.7019L189.621 43.9334L197.057 43.5294ZM227.161 44.4808L212.101 43.4811L197.057 43.5294L227.161 44.4808ZM227.161 44.4808L219.628 43.8498L212.101 43.4811L227.161 44.4808Z" fill="#F8F9FA"/>
<path d="M197.057 43.5293L189.621 43.9334L182.355 44.5737L197.057 43.5293ZM227.161 44.4807L223.393 44.1324L219.628 43.8498L227.161 44.4807ZM189.621 43.9334L185.967 44.224L182.355 44.5737L189.621 43.9334Z" fill="#F8F9FA"/>
<path d="M388.775 37.8547L358.438 45.987L415.145 49.7265L388.775 37.8547Z" fill="#F8F9FA"/>
<path d="M197.058 43.5293L182.356 44.5737L168.326 46.5648L197.058 43.5293Z" fill="#F8F9FA"/>
<path d="M234.702 45.3743L230.93 44.8947L227.16 44.4807L234.702 45.3743Z" fill="#F8F9FA"/>
<path d="M182.357 44.5737L178.787 44.9826L175.259 45.4507L182.357 44.5737Z" fill="#F8F9FA"/>
<path d="M242.256 46.5312L234.702 45.3743L227.16 44.4807L242.256 46.5312Z" fill="#F8F9FA"/>
<path d="M182.356 44.5737L175.258 45.4507L168.326 46.5648L182.356 44.5737Z" fill="#F8F9FA"/>
<path d="M257.052 49.5345L227.162 44.4807L197.059 43.5293L257.052 49.5345Z" fill="#F8F9FA"/>
<path d="M242.256 46.5312L238.477 45.9198L234.702 45.3743L242.256 46.5312Z" fill="#F8F9FA"/>
<path d="M175.258 45.4506L171.772 45.9779L168.326 46.5647L175.258 45.4506Z" fill="#F8F9FA"/>
<path d="M257.05 49.5345L242.256 46.5312L227.16 44.4807L257.05 49.5345Z" fill="#F8F9FA"/>
<path d="M249.743 47.9046L246.022 47.1859L242.257 46.5314L249.743 47.9046ZM168.326 46.5649L164.921 47.2111L161.558 47.9169L168.326 46.5649Z" fill="#F8F9FA"/>
<path d="M197.059 43.5293L168.327 46.5648L143.029 53.1976L197.059 43.5293Z" fill="#F8F9FA"/>
<path d="M257.052 49.5347L249.744 47.9046L242.257 46.5314L257.052 49.5347ZM168.326 46.5649L161.558 47.9169L154.952 49.5077L168.326 46.5649Z" fill="#F8F9FA"/>
<path d="M161.558 47.9169L158.235 48.6824L154.952 49.5077L161.558 47.9169ZM257.052 49.5346L253.42 48.6874L249.744 47.9045L257.052 49.5346Z" fill="#F8F9FA"/>
<path d="M257.053 49.5345L197.059 43.5293L143.029 53.1976L257.053 49.5345Z" fill="#F8F9FA"/>
<path d="M438.968 59.6611L480 48.4881L456.114 38.6512L438.968 59.6611Z" fill="#F8F9FA"/>
<path d="M415.146 49.7266L438.969 59.6611L456.115 38.6512L415.146 49.7266Z" fill="#F8F9FA"/>
<path d="M168.327 46.5647L154.953 49.5075L143.029 53.1975L168.327 46.5647Z" fill="#F8F9FA"/>
<path d="M154.952 49.5076L151.732 50.3868L148.672 51.2948L154.952 49.5076Z" fill="#F8F9FA"/>
<path d="M264.183 51.4225L260.639 50.4461L257.051 49.5344L264.183 51.4225Z" fill="#F8F9FA"/>
<path d="M154.953 49.5076L148.672 51.2948L143.029 53.1975L154.953 49.5076Z" fill="#F8F9FA"/>
<path d="M271.142 53.5698L264.183 51.4225L257.051 49.5344L271.142 53.5698Z" fill="#F8F9FA"/>
<path d="M148.672 51.2949L145.771 52.2318L143.029 53.1976L148.672 51.2949Z" fill="#F8F9FA"/>
<path d="M358.436 45.9871L312.844 61.6043L415.144 49.7265L358.436 45.9871Z" fill="#F8F9FA"/>
<path d="M271.143 53.57L267.685 52.4638L264.185 51.4226L271.143 53.57Z" fill="#F8F9FA"/>
<path d="M284.545 58.6485L271.142 53.5698L257.051 49.5344L284.545 58.6485Z" fill="#F8F9FA"/>
<path d="M143.027 53.1975L140.445 54.1923L138.022 55.2162L143.027 53.1975Z" fill="#F8F9FA"/>
<path d="M257.053 49.5344L143.029 53.1975L205.704 60.2848L257.053 49.5344Z" fill="#F8F9FA"/>
<path d="M277.928 55.9781L274.556 54.7413L271.142 53.5699L277.928 55.9781Z" fill="#F8F9FA"/>
<path d="M143.028 53.1975L138.023 55.2162L133.657 57.3515L143.028 53.1975Z" fill="#F8F9FA"/>
<path d="M284.545 58.6486L277.928 55.9781L271.142 53.5699L284.545 58.6486Z" fill="#F8F9FA"/>
<path d="M138.023 55.2162L135.76 56.2692L133.657 57.3515L138.023 55.2162Z" fill="#F8F9FA"/>
<path d="M257.051 49.5344L205.703 60.2848L208.135 60.5781L257.051 49.5344Z" fill="#F8F9FA"/>
<path d="M257.052 49.5344L208.136 60.5781L210.625 60.9249L257.052 49.5344Z" fill="#F8F9FA"/>
<path d="M257.052 49.5344L210.625 60.9249L213.159 61.355L257.052 49.5344Z" fill="#F8F9FA"/>
<path d="M284.546 58.6485L281.259 57.2804L277.93 55.978L284.546 58.6485Z" fill="#F8F9FA"/>
<path d="M143.028 53.1975L133.658 57.3515L126.848 61.9747L143.028 53.1975Z" fill="#F8F9FA"/>
<path d="M257.053 49.5344L213.159 61.355L215.738 61.8687L257.053 49.5344ZM143.029 53.1975L196.501 59.7886L198.724 59.8112L143.029 53.1975Z" fill="#F8F9FA"/>
<path d="M143.029 53.1975L194.331 59.8338L196.501 59.7887L143.029 53.1975Z" fill="#F8F9FA"/>
<path d="M143.029 53.1975L198.724 59.8112L200.998 59.9014L143.029 53.1975Z" fill="#F8F9FA"/>
<path d="M143.029 53.1975L192.213 59.9466L194.331 59.8338L143.029 53.1975Z" fill="#F8F9FA"/>
<path d="M143.029 53.1975L200.998 59.9014L203.325 60.0593L143.029 53.1975Z" fill="#F8F9FA"/>
<path d="M143.029 53.1975L190.146 60.1271L192.213 59.9466L143.029 53.1975Z" fill="#F8F9FA"/>
<path d="M143.029 53.1975L203.325 60.0593L205.704 60.2848L143.029 53.1975Z" fill="#F8F9FA"/>
<path d="M143.029 53.1975L188.13 60.3753L190.146 60.1271L143.029 53.1975Z" fill="#F8F9FA"/>
<path d="M257.052 49.5344L215.737 61.8687L218.362 62.466L257.052 49.5344Z" fill="#F8F9FA"/>
<path d="M143.029 53.1975L186.166 60.6912L188.13 60.3753L143.029 53.1975Z" fill="#F8F9FA"/>
<path d="M143.029 53.1975L184.252 61.075L186.166 60.6912L143.029 53.1975Z" fill="#F8F9FA"/>
<path d="M257.052 49.5344L218.362 62.466L221.033 63.1471L257.052 49.5344Z" fill="#F8F9FA"/>
<path d="M133.656 57.3517L131.713 58.4633L129.931 59.6043L133.656 57.3517Z" fill="#F8F9FA"/>
<path d="M143.029 53.1975L182.39 61.5266L184.252 61.075L143.029 53.1975Z" fill="#F8F9FA"/>
<path d="M257.052 49.5344L221.032 63.1471L223.749 63.9121L257.052 49.5344Z" fill="#F8F9FA"/>
<path d="M143.029 53.1975L180.606 62.0389L182.39 61.5266L143.029 53.1975Z" fill="#F8F9FA"/>
<path d="M143.029 53.1975L179.002 62.5853L180.606 62.0389L143.029 53.1975Z" fill="#F8F9FA"/>
<path d="M304.592 69.9554L284.545 58.6485L257.051 49.5344L304.592 69.9554Z" fill="#F8F9FA"/>
<path d="M257.051 49.5344L223.748 63.9121L226.511 64.7612L257.051 49.5344Z" fill="#F8F9FA"/>
<path d="M133.658 57.3515L129.932 59.6041L126.848 61.9747L133.658 57.3515ZM143.028 53.1975L177.576 63.1657L179.001 62.5853L143.028 53.1975Z" fill="#F8F9FA"/>
<path d="M257.052 49.5344L226.512 64.7612L229.321 65.6945L257.052 49.5344Z" fill="#F8F9FA"/>
<path d="M143.029 53.1975L176.331 63.7803L177.576 63.1657L143.029 53.1975ZM290.7 61.4569L287.718 60.0512L284.547 58.6485L290.7 61.4569Z" fill="#F8F9FA"/>
<path d="M143.029 53.1975L175.265 64.429L176.331 63.7803L143.029 53.1975Z" fill="#F8F9FA"/>
<path d="M257.052 49.5344L229.321 65.6945L232.178 66.7123L257.052 49.5344Z" fill="#F8F9FA"/>
<path d="M129.932 59.6041L128.309 60.7746L126.848 61.9747L129.932 59.6041Z" fill="#F8F9FA"/>
<path d="M312.844 61.6044L335.459 71.2679L415.144 49.7266L312.844 61.6044Z" fill="#F8F9FA"/>
<path d="M143.029 53.1975L174.379 65.112L175.265 64.429L143.029 53.1975Z" fill="#F8F9FA"/>
<path d="M257.053 49.5344L232.179 66.7123L235.083 67.8148L257.053 49.5344ZM143.029 53.1975L173.672 65.8292L174.379 65.112L143.029 53.1975Z" fill="#F8F9FA"/>
<path d="M296.092 64.2775L290.698 61.457L284.545 58.6486L296.092 64.2775Z" fill="#F8F9FA"/>
<path d="M257.052 49.5344L235.083 67.8148L238.035 69.0023L257.052 49.5344Z" fill="#F8F9FA"/>
<path d="M143.028 53.1975L126.848 61.9747L121.727 72.2897L143.028 53.1975Z" fill="#F8F9FA"/>
<path d="M296.092 64.2775L293.49 62.8657L290.698 61.4569L296.092 64.2775Z" fill="#F8F9FA"/>
<path d="M257.052 49.5344L238.035 69.0023L241.036 70.275L257.052 49.5344Z" fill="#F8F9FA"/>
<path d="M126.848 61.9747L125.559 63.1989L124.455 64.4415L126.848 61.9747Z" fill="#F8F9FA"/>
<path d="M257.051 49.5344L241.035 70.275L243.949 71.5741L257.051 49.5344Z" fill="#F8F9FA"/>
<path d="M304.593 69.9554L296.092 64.2775L284.545 58.6486L304.593 69.9554Z" fill="#F8F9FA"/>
<path d="M126.847 61.9747L124.454 64.4415L122.801 66.9826L126.847 61.9747Z" fill="#F8F9FA"/>
<path d="M243.95 71.5741L246.641 72.8406L257.052 49.5344L243.95 71.5741Z" fill="#F8F9FA"/>
<path d="M246.641 72.8406L249.108 74.0745L257.052 49.5344L246.641 72.8406Z" fill="#F8F9FA"/>
<path d="M300.724 67.1104L298.503 65.6925L296.092 64.2776L300.724 67.1104Z" fill="#F8F9FA"/>
<path d="M124.454 64.4415L123.535 65.7028L122.801 66.9826L124.454 64.4415Z" fill="#F8F9FA"/>
<path d="M249.107 74.0745L251.351 75.2755L257.052 49.5344L249.107 74.0745Z" fill="#F8F9FA"/>
<path d="M126.848 61.9746L122.801 66.9825L121.727 72.2897L126.848 61.9746ZM251.351 75.2755L253.37 76.4436L257.052 49.5344L251.351 75.2755Z" fill="#F8F9FA"/>
<path d="M304.592 69.9555L300.724 67.1104L296.092 64.2776L304.592 69.9555Z" fill="#F8F9FA"/>
<path d="M253.37 76.4436L255.164 77.5787L257.052 49.5344L253.37 76.4436Z" fill="#F8F9FA"/>
<path d="M122.802 66.9827L122.254 68.2812L121.892 69.5986L122.802 66.9827Z" fill="#F8F9FA"/>
<path d="M304.594 69.9554L302.756 68.5313L300.726 67.1102L304.594 69.9554ZM255.164 77.5787L256.733 78.6807L257.052 49.5344L255.164 77.5787Z" fill="#F8F9FA"/>
<path d="M256.732 78.6807L258.075 79.7495L257.052 49.5344L256.732 78.6807Z" fill="#F8F9FA"/>
<path d="M122.801 66.9827L121.891 69.5986L121.727 72.2898L122.801 66.9827Z" fill="#F8F9FA"/>
<path d="M258.074 79.7495L259.191 80.785L257.051 49.5344L258.074 79.7495Z" fill="#F8F9FA"/>
<path d="M308.138 91.6658L304.592 69.9554L257.051 49.5344L308.138 91.6658Z" fill="#F8F9FA"/>
<path d="M259.191 80.785L260.081 81.7871L257.051 49.5344L259.191 80.785Z" fill="#F8F9FA"/>
<path d="M121.892 69.5985L121.716 70.9347L121.727 72.2897L121.892 69.5985Z" fill="#F8F9FA"/>
<path d="M260.083 81.7871L260.746 82.7557L257.053 49.5344L260.083 81.7871ZM143.029 53.1975L148.172 95.0897L173.672 65.8292L143.029 53.1975Z" fill="#F8F9FA"/>
<path d="M307.693 72.8129L306.239 71.3826L304.593 69.9554L307.693 72.8129Z" fill="#F8F9FA"/>
<path d="M260.745 82.7557L261.181 83.6907L257.051 49.5344L260.745 82.7557Z" fill="#F8F9FA"/>
<path d="M261.181 83.6907L261.421 84.57L257.051 49.5344L261.181 83.6907Z" fill="#F8F9FA"/>
<path d="M310.023 75.6829L307.693 72.8129L304.593 69.9554L310.023 75.6829Z" fill="#F8F9FA"/>
<path d="M143.028 53.1975L121.727 72.2897L148.172 95.0898L143.028 53.1975Z" fill="#F8F9FA"/>
<path d="M121.727 72.2897L121.925 73.6637L122.31 75.0567L121.727 72.2897Z" fill="#F8F9FA"/>
<path d="M310.023 75.6828L308.955 74.2463L307.693 72.8129L310.023 75.6828Z" fill="#F8F9FA"/>
<path d="M121.727 72.2897L122.31 75.0567L123.644 77.9001L121.727 72.2897Z" fill="#F8F9FA"/>
<path d="M261.421 84.57L308.138 91.6658L257.051 49.5344L261.421 84.57Z" fill="#F8F9FA"/>
<path d="M312.432 81.235L310.023 75.6829L304.593 69.9554L312.432 81.235Z" fill="#F8F9FA"/>
<path d="M148.172 95.0898L173.145 66.581L173.672 65.8293L148.172 95.0898Z" fill="#F8F9FA"/>
<path d="M148.172 95.0898L172.799 67.367L173.145 66.5809L148.172 95.0898Z" fill="#F8F9FA"/>
<path d="M122.31 75.0568L122.883 76.4689L123.644 77.9002L122.31 75.0568Z" fill="#F8F9FA"/>
<path d="M148.172 95.0898L172.633 68.1877L172.799 67.3671L148.172 95.0898Z" fill="#F8F9FA"/>
<path d="M311.606 78.4866L310.909 77.0916L310.024 75.6829L311.606 78.4866Z" fill="#F8F9FA"/>
<path d="M148.172 95.0899L172.647 69.0429L172.633 68.1877L148.172 95.0899Z" fill="#F8F9FA"/>
<path d="M121.727 72.2897L123.644 77.9001L128.666 83.5924L121.727 72.2897Z" fill="#F8F9FA"/>
<path d="M148.172 95.0899L172.843 69.9328L172.647 69.043L148.172 95.0899Z" fill="#F8F9FA"/>
<path d="M312.433 81.235L311.606 78.4866L310.024 75.6829L312.433 81.235Z" fill="#F8F9FA"/>
<path d="M148.172 95.0899L173.249 70.8359L172.843 69.9327L148.172 95.0899Z" fill="#F8F9FA"/>
<path d="M148.172 95.0899L173.88 71.7757L173.249 70.8359L148.172 95.0899Z" fill="#F8F9FA"/>
<path d="M123.644 77.9001L124.605 79.3197L125.763 80.7416L123.644 77.9001Z" fill="#F8F9FA"/>
<path d="M312.431 81.2351L312.112 79.8678L311.604 78.4867L312.431 81.2351Z" fill="#F8F9FA"/>
<path d="M148.172 95.0898L174.737 72.7521L173.88 71.7756L148.172 95.0898Z" fill="#F8F9FA"/>
<path d="M148.172 95.0898L175.818 73.7654L174.737 72.7521L148.172 95.0898Z" fill="#F8F9FA"/>
<path d="M123.644 77.9001L125.763 80.7416L128.665 83.5924L123.644 77.9001Z" fill="#F8F9FA"/>
<path d="M308.138 91.6659L312.432 81.235L304.593 69.9554L308.138 91.6659Z" fill="#F8F9FA"/>
<path d="M148.172 95.0898L177.126 74.8156L175.818 73.7654L148.172 95.0898Z" fill="#F8F9FA"/>
<path d="M148.172 95.0898L178.659 75.9027L177.126 74.8156L148.172 95.0898Z" fill="#F8F9FA"/>
<path d="M125.764 80.7416L127.117 82.1658L128.666 83.5924L125.764 80.7416Z" fill="#F8F9FA"/>
<path d="M312.502 83.9275L312.562 82.5882L312.433 81.235L312.502 83.9275Z" fill="#F8F9FA"/>
<path d="M148.172 95.0898L180.419 77.027L178.659 75.9027L148.172 95.0898Z" fill="#F8F9FA"/>
<path d="M148.172 95.0899L182.407 78.1886L180.419 77.0271L148.172 95.0899Z" fill="#F8F9FA"/>
<path d="M121.727 72.2897L128.666 83.5924L148.172 95.0897L121.727 72.2897Z" fill="#F8F9FA"/>
<path d="M311.811 86.5638L312.501 83.9275L312.432 81.235L311.811 86.5638Z" fill="#F8F9FA"/>
<path d="M148.172 95.0897L184.621 79.3873L182.407 78.1885L148.172 95.0897Z" fill="#F8F9FA"/>
<path d="M128.666 83.5924L130.412 85.0213L132.355 86.4526L128.666 83.5924Z" fill="#F8F9FA"/>
<path d="M148.172 95.0899L187.063 80.6237L184.621 79.3875L148.172 95.0899Z" fill="#F8F9FA"/>
<path d="M311.811 86.5638L312.251 85.2527L312.501 83.9275L311.811 86.5638Z" fill="#F8F9FA"/>
<path d="M148.172 95.0899L189.734 81.8975L187.063 80.6237L148.172 95.0899Z" fill="#F8F9FA"/>
<path d="M128.666 83.5925L132.355 86.4527L136.834 89.3223L128.666 83.5925ZM308.139 91.6659L311.811 86.5638L312.433 81.235L308.139 91.6659Z" fill="#F8F9FA"/>
<path d="M148.172 95.09L192.634 83.2091L189.734 81.8976L148.172 95.09Z" fill="#F8F9FA"/>
<path d="M261.421 84.5701L261.48 85.4166L308.137 91.6659L261.421 84.5701Z" fill="#F8F9FA"/>
<path d="M195.627 84.4986L192.634 83.209L148.172 95.0899L195.627 84.4986Z" fill="#F8F9FA"/>
<path d="M261.481 85.4165L261.359 86.2302L308.137 91.6658L261.481 85.4165Z" fill="#F8F9FA"/>
<path d="M310.357 89.1434L311.18 87.8607L311.811 86.5638L310.357 89.1434Z" fill="#F8F9FA"/>
<path d="M132.354 86.4526L134.495 87.8862L136.833 89.3222L132.354 86.4526Z" fill="#F8F9FA"/>
<path d="M261.36 86.2302L261.058 87.011L308.138 91.6658L261.36 86.2302Z" fill="#F8F9FA"/>
<path d="M198.58 85.7063L195.627 84.4985L148.172 95.0898L198.58 85.7063Z" fill="#F8F9FA"/>
<path d="M261.058 87.0111L260.574 87.759L308.138 91.6659L261.058 87.0111Z" fill="#F8F9FA"/>
<path d="M308.139 91.6659L310.357 89.1434L311.811 86.5638L308.139 91.6659Z" fill="#F8F9FA"/>
<path d="M260.575 87.759L259.91 88.4739L308.139 91.6659L260.575 87.759Z" fill="#F8F9FA"/>
<path d="M128.666 83.5924L136.834 89.3222L148.172 95.0897L128.666 83.5924Z" fill="#F8F9FA"/>
<path d="M259.909 88.4738L259.062 89.1555L308.138 91.6658L259.909 88.4738Z" fill="#F8F9FA"/>
<path d="M259.063 89.1555L258.035 89.8041L308.138 91.6658L259.063 89.1555Z" fill="#F8F9FA"/>
<path d="M308.139 91.6659L309.344 90.4119L310.357 89.1434L308.139 91.6659Z" fill="#F8F9FA"/>
<path d="M258.035 89.8041L256.825 90.4195L308.138 91.6658L258.035 89.8041Z" fill="#F8F9FA"/>
<path d="M136.833 89.3223L139.369 90.7606L142.104 92.2013L136.833 89.3223Z" fill="#F8F9FA"/>
<path d="M256.826 90.4196L255.435 91.0017L308.139 91.6659L256.826 90.4196Z" fill="#F8F9FA"/>
<path d="M255.433 91.0017L253.859 91.5506L308.138 91.6659L255.433 91.0017Z" fill="#F8F9FA"/>
<path d="M253.86 91.5505L252.104 92.066L308.138 91.6658L253.86 91.5505Z" fill="#F8F9FA"/>
<path d="M252.105 92.066L250.195 92.5406L308.139 91.6658L252.105 92.066Z" fill="#F8F9FA"/>
<path d="M136.833 89.3223L142.104 92.2013L148.171 95.0898L136.833 89.3223Z" fill="#F8F9FA"/>
<path d="M250.194 92.5406L248.231 92.9468L308.137 91.6658L250.194 92.5406Z" fill="#F8F9FA"/>
<path d="M248.232 92.9468L246.217 93.2845L308.138 91.6658L248.232 92.9468Z" fill="#F8F9FA"/>
<path d="M246.217 93.2845L244.149 93.5537L308.138 91.6658L246.217 93.2845Z" fill="#F8F9FA"/>
<path d="M305.206 94.1023L306.755 92.8984L308.139 91.6658L305.206 94.1023Z" fill="#F8F9FA"/>
<path d="M244.149 93.5537L242.029 93.7544L308.137 91.6658L244.149 93.5537Z" fill="#F8F9FA"/>
<path d="M242.03 93.7544L239.858 93.8864L308.138 91.6658L242.03 93.7544Z" fill="#F8F9FA"/>
<path d="M142.104 92.2013L145.038 93.6444L148.171 95.0898L142.104 92.2013ZM198.579 85.7063L148.171 95.0898L161.534 100.372L198.579 85.7063Z" fill="#F8F9FA"/>
<path d="M301.611 96.4238L305.206 94.1024L308.138 91.6659L301.611 96.4238ZM201.49 86.8321L198.579 85.7063L252.477 109.799L201.49 86.8321Z" fill="#F8F9FA"/>
<path d="M204.359 87.8755L201.49 86.832L252.477 109.799L204.359 87.8755Z" fill="#F8F9FA"/>
<path d="M301.612 96.4237L303.492 95.2774L305.207 94.1023L301.612 96.4237Z" fill="#F8F9FA"/>
<path d="M207.184 88.8366L204.358 87.8756L252.477 109.799L207.184 88.8366Z" fill="#F8F9FA"/>
<path d="M209.968 89.7147L207.185 88.8364L252.477 109.799L209.968 89.7147Z" fill="#F8F9FA"/>
<path d="M292.433 100.718L301.612 96.4237L308.139 91.6658L292.433 100.718Z" fill="#F8F9FA"/>
<path d="M148.172 95.0897L151.432 96.505L154.745 97.8573L148.172 95.0897Z" fill="#F8F9FA"/>
<path d="M212.707 90.51L209.967 89.7147L252.476 109.799L212.707 90.51Z" fill="#F8F9FA"/>
<path d="M215.404 91.2222L212.707 90.51L252.476 109.799L215.404 91.2222Z" fill="#F8F9FA"/>
<path d="M297.354 98.6295L299.566 97.5413L301.612 96.424L297.354 98.6295Z" fill="#F8F9FA"/>
<path d="M218.057 91.8514L215.404 91.2224L252.477 109.8L218.057 91.8514Z" fill="#F8F9FA"/>
<path d="M148.172 95.0897L154.745 97.8573L161.534 100.372L148.172 95.0897Z" fill="#F8F9FA"/>
<path d="M198.579 85.7063L161.534 100.372L190.809 107.875L198.579 85.7063Z" fill="#F8F9FA"/>
<path d="M220.666 92.3969L218.058 91.8513L252.478 109.799L220.666 92.3969Z" fill="#F8F9FA"/>
<path d="M223.23 92.859L220.666 92.3969L252.478 109.799L223.23 92.859Z" fill="#F8F9FA"/>
<path d="M239.858 93.8864L252.477 109.799L308.138 91.6658L239.858 93.8864Z" fill="#F8F9FA"/>
<path d="M292.433 100.719L297.355 98.6295L301.612 96.424L292.433 100.719Z" fill="#F8F9FA"/>
<path d="M225.748 93.2377L223.229 92.8591L252.476 109.8L225.748 93.2377Z" fill="#F8F9FA"/>
<path d="M228.227 93.5172L225.748 93.2375L252.477 109.799L228.227 93.5172Z" fill="#F8F9FA"/>
<path d="M230.656 93.7284L228.228 93.5173L252.477 109.8L230.656 93.7284Z" fill="#F8F9FA"/>
<path d="M154.744 97.8575L158.112 99.1467L161.533 100.372L154.744 97.8575ZM233.033 93.8709L230.656 93.7284L252.476 109.799L233.033 93.8709Z" fill="#F8F9FA"/>
<path d="M235.362 93.9446L233.035 93.8707L252.478 109.799L235.362 93.9446Z" fill="#F8F9FA"/>
<path d="M239.858 93.8865L237.635 93.9499L252.476 109.799L239.858 93.8865Z" fill="#F8F9FA"/>
<path d="M237.635 93.9499L235.36 93.9447L252.477 109.799L237.635 93.9499Z" fill="#F8F9FA"/>
<path d="M292.433 100.718L294.977 99.6885L297.355 98.6294L292.433 100.718Z" fill="#F8F9FA"/>
<path d="M252.478 109.799L292.433 100.718L308.139 91.6658L252.478 109.799Z" fill="#F8F9FA"/>
<path d="M198.579 85.7063L190.809 107.875L252.477 109.799L198.579 85.7063Z" fill="#F8F9FA"/>
<path d="M161.534 100.372L165.009 101.535L168.537 102.633L161.534 100.372Z" fill="#F8F9FA"/>
<path d="M286.845 102.69L289.722 101.719L292.432 100.719L286.845 102.69Z" fill="#F8F9FA"/>
<path d="M161.534 100.372L168.537 102.633L175.752 104.638L161.534 100.372Z" fill="#F8F9FA"/>
<path d="M280.591 104.545L286.845 102.69L292.432 100.719L280.591 104.545Z" fill="#F8F9FA"/>
<path d="M280.591 104.545L283.802 103.632L286.845 102.69L280.591 104.545ZM168.537 102.633L172.118 103.668L175.752 104.638L168.537 102.633Z" fill="#F8F9FA"/>
<path d="M161.534 100.372L175.752 104.638L190.809 107.875L161.534 100.372Z" fill="#F8F9FA"/>
<path d="M252.478 109.799L280.591 104.545L292.433 100.719L252.478 109.799Z" fill="#F8F9FA"/>
<path d="M273.837 106.235L277.237 105.421L280.591 104.545L273.837 106.235Z" fill="#F8F9FA"/>
<path d="M175.751 104.638L179.437 105.544L183.176 106.386L175.751 104.638Z" fill="#F8F9FA"/>
<path d="M46.5176 79.6042L0 91.8066L1.13719 145.286L46.5176 79.6042Z" fill="#F8F9FA"/>
<path d="M266.899 107.675L273.838 106.235L280.592 104.545L266.899 107.675Z" fill="#F8F9FA"/>
<path d="M175.751 104.638L183.176 106.386L190.809 107.875L175.751 104.638Z" fill="#F8F9FA"/>
<path d="M266.899 107.675L270.391 106.986L273.838 106.235L266.899 107.675Z" fill="#F8F9FA"/>
<path d="M183.176 106.386L186.966 107.163L190.809 107.875L183.176 106.386Z" fill="#F8F9FA"/>
<path d="M252.478 109.799L266.899 107.675L280.591 104.545L252.478 109.799Z" fill="#F8F9FA"/>
<path d="M259.777 108.863L263.36 108.3L266.898 107.675L259.777 108.863Z" fill="#F8F9FA"/>
<path d="M190.809 107.875L194.686 108.499L198.564 109.055L190.809 107.875Z" fill="#F8F9FA"/>
<path d="M252.478 109.799L259.778 108.863L266.899 107.675L252.478 109.799Z" fill="#F8F9FA"/>
<path d="M190.809 107.875L198.564 109.055L206.324 109.966L190.809 107.875Z" fill="#F8F9FA"/>
<path d="M125.786 108.351L105.413 99.1417L83.2275 119.76L125.786 108.351Z" fill="#F8F9FA"/>
<path d="M252.478 109.8L256.15 109.363L259.778 108.863L252.478 109.8Z" fill="#F8F9FA"/>
<path d="M198.565 109.055L202.445 109.544L206.325 109.966L198.565 109.055Z" fill="#F8F9FA"/>
<path d="M190.809 107.875L221.842 110.98L252.477 109.799L190.809 107.875Z" fill="#F8F9FA"/>
<path d="M190.809 107.875L206.324 109.966L221.842 110.98L190.809 107.875Z" fill="#F8F9FA"/>
<path d="M105.413 99.1417L62.9248 110.459L83.2276 119.76L105.413 99.1417Z" fill="#F8F9FA"/>
<path d="M244.998 110.483L248.76 110.173L252.477 109.799L244.998 110.483Z" fill="#F8F9FA"/>
<path d="M206.324 109.966L210.205 110.321L214.085 110.608L206.324 109.966ZM152.915 120.615L149.275 102.055L125.786 108.351L152.915 120.615Z" fill="#F8F9FA"/>
<path d="M237.344 110.913L244.999 110.483L252.478 109.799L237.344 110.913Z" fill="#F8F9FA"/>
<path d="M206.323 109.966L214.083 110.608L221.842 110.98L206.323 109.966ZM221.842 110.98L237.342 110.913L252.476 109.799L221.842 110.98Z" fill="#F8F9FA"/>
<path d="M237.344 110.913L241.193 110.73L244.999 110.483L237.344 110.913Z" fill="#F8F9FA"/>
<path d="M214.085 110.608L217.965 110.828L221.843 110.98L214.085 110.608ZM221.843 110.98L229.597 111.081L237.344 110.913L221.843 110.98ZM229.597 111.081L233.471 111.031L237.344 110.913L229.597 111.081Z" fill="#F8F9FA"/>
<path d="M221.844 110.98L225.721 111.064L229.598 111.081L221.844 110.98Z" fill="#F8F9FA"/>
<path d="M152.915 120.615L176.454 114.252L149.274 102.055L152.915 120.615Z" fill="#F8F9FA"/>
<path d="M50.629 128.498L46.5181 79.6042L1.1377 145.286L50.629 128.498Z" fill="#F8F9FA"/>
<path d="M108.889 132.517L125.786 108.351L83.2275 119.76L108.889 132.517ZM108.889 132.517L152.915 120.615L125.786 108.351L108.889 132.517Z" fill="#F8F9FA"/>
<path d="M83.2267 119.76L50.6279 128.498L108.888 132.517L83.2267 119.76Z" fill="#F8F9FA"/>
<path d="M132.19 143.196L176.298 131.186L152.914 120.615L132.19 143.196Z" fill="#F8F9FA"/>
<path d="M108.889 132.517L132.191 143.196L152.915 120.615L108.889 132.517Z" fill="#F8F9FA"/>
<path d="M50.629 128.498L1.1377 145.286L108.889 132.517L50.629 128.498Z" fill="#F8F9FA"/>
<path d="M1.1377 145.286L23.2134 155.678L108.889 132.517L1.1377 145.286Z" fill="#F8F9FA"/>
<mask id="mask0" mask-type="alpha" maskUnits="userSpaceOnUse" x="181" y="4" width="116" height="90">
<path d="M181.538 4.61536H296.923V82.3077C296.153 84.6154 262.794 86.5646 261.538 86.923C245.384 100.769 207.601 92.2415 181.538 77.6923V4.61536Z" fill="#C4C4C4"/>
</mask>
<g mask="url(#mask0)">
<path d="M208.958 105.774L243.214 104.969V71.2837C247.866 69.7644 255.159 66.4219 258.805 63.3833C257.286 56.0906 253.972 44.1747 251.237 35.9705C249.718 33.8434 245.589 35.1174 245.16 37.7937C245.696 43.967 246.519 50.8351 246.651 57.0022C230.242 57.6099 209.883 56.6983 205.022 67.0296L204.972 67.1359C203.072 71.1709 197.387 83.2492 198.641 91.3385C199.652 97.8679 205.854 104.011 208.958 105.774Z" fill="#FFBE1F"/>
<path fill-rule="evenodd" clip-rule="evenodd" d="M283.873 24.367C283.98 24.3558 284.084 24.3998 284.147 24.4864C286.685 27.9755 286.388 34.6953 284.808 36.4914C284.758 36.5475 284.689 36.5774 284.614 36.5826L279.494 36.9357C279.239 36.9533 279.061 36.6614 279.163 36.4266C280.299 33.8145 280.037 27.7537 278.717 25.4378C278.592 25.2191 278.721 24.9087 278.971 24.8824L283.873 24.367ZM276.34 35.759C276.436 35.7562 276.524 35.7113 276.575 35.6312C277.776 33.759 277.653 28.7757 276.198 26.6989C276.138 26.6131 276.036 26.5703 275.931 26.5798L260.249 28.0124C259.998 28.0353 259.858 28.3519 259.965 28.5797C260.727 30.1917 260.924 33.8323 260.44 35.4955C260.359 35.7709 260.611 36.2174 260.898 36.209L276.34 35.759ZM257.466 29.6342C257.408 29.5513 257.308 29.5118 257.207 29.5214L238.59 31.2977C238.402 31.3156 238.275 31.4992 238.321 31.6826C238.874 33.8756 238.888 34.4734 238.711 35.4921C238.677 35.6886 238.833 35.8676 239.032 35.8573L257.633 34.8885C257.714 34.8843 257.791 34.8504 257.836 34.7835C258.437 33.8863 258.321 30.8571 257.466 29.6342Z" fill="#222222"/>
<circle cx="226.292" cy="39.0741" r="14.5853" fill="#FFBE1F"/>
</g>
<defs>
<linearGradient id="paint0_linear" x1="370.463" y1="0.842303" x2="392.836" y2="178.043" gradientUnits="userSpaceOnUse">
<stop offset="0.585545" stop-color="white" stop-opacity="0"/>
<stop offset="1" stop-color="white"/>
</linearGradient>
<linearGradient id="paint1_linear" x1="193.577" y1="49.2218" x2="212.704" y2="220.274" gradientUnits="userSpaceOnUse">
<stop offset="0.585545" stop-color="white" stop-opacity="0"/>
<stop offset="1" stop-color="white"/>
</linearGradient>
<linearGradient id="paint2_linear" x1="193.577" y1="49.2218" x2="212.704" y2="220.274" gradientUnits="userSpaceOnUse">
<stop offset="0.585545" stop-color="white" stop-opacity="0"/>
<stop offset="1" stop-color="white"/>
</linearGradient>
<linearGradient id="paint3_linear" x1="193.577" y1="49.2218" x2="212.704" y2="220.274" gradientUnits="userSpaceOnUse">
<stop offset="0.585545" stop-color="white" stop-opacity="0"/>
<stop offset="1" stop-color="white"/>
</linearGradient>
<linearGradient id="paint4_linear" x1="67.2102" y1="100.159" x2="86.9484" y2="266.647" gradientUnits="userSpaceOnUse">
<stop offset="0.585545" stop-color="white" stop-opacity="0"/>
<stop offset="1" stop-color="white"/>
</linearGradient>
</defs>
</svg>
