<svg width="40" height="40" viewBox="0 0 40 40" fill="none" xmlns="http://www.w3.org/2000/svg">
<g clip-path="url(#clip0_6245_2313)">
<path d="M16.6637 39.7791C7.22181 38.116 0 29.8892 0 20.0008C0 9.00004 9.00004 0 20.0008 0C31.0015 0 40 9.00004 40 20.0008C40 29.8892 32.7782 38.1129 23.3332 39.7791L22.2224 38.8939H17.7776L16.6637 39.7791Z" fill="url(#paint0_linear_6245_2313)"/>
<path d="M27.778 25.5564L28.6664 20.0008H23.3332V16.1114C23.3332 14.5557 23.8886 13.3329 26.3327 13.3329H28.8888V8.22219C27.4435 7.99972 25.8893 7.77881 24.4425 7.77881C19.8872 7.77881 16.6637 10.5574 16.6637 15.5576V20.0024H11.6666V25.558H16.6637V39.6718C18.8636 40.1162 21.1302 40.1162 23.3301 39.6718V25.5611L27.778 25.5564Z" fill="white"/>
</g>
<defs>
<linearGradient id="paint0_linear_6245_2313" x1="20.0241" y1="38.2433" x2="20.0241" y2="-0.374719" gradientUnits="userSpaceOnUse">
<stop stop-color="#0062E0"/>
<stop offset="1" stop-color="#19AFFF"/>
</linearGradient>
<clipPath id="clip0_6245_2313">
<rect width="40" height="40" fill="white"/>
</clipPath>
</defs>
</svg>
