<svg width="40" height="40" viewBox="0 0 40 40" fill="none" xmlns="http://www.w3.org/2000/svg">
<path d="M20 40C31.0457 40 40 31.0457 40 20C40 8.9543 31.0457 0 20 0C8.9543 0 0 8.9543 0 20C0 31.0457 8.9543 40 20 40Z" fill="url(#paint0_linear_6245_2320)"/>
<path d="M9.05313 19.7889C14.8835 17.2487 18.7714 15.574 20.7167 14.7649C26.2709 12.4547 27.425 12.0534 28.1773 12.04C28.3427 12.0373 28.7126 12.0783 28.9523 12.2727C29.1546 12.4369 29.2103 12.6587 29.2369 12.8143C29.2635 12.97 29.2967 13.3246 29.2703 13.6017C28.9694 16.7641 27.667 24.4386 27.0044 27.9807C26.7241 29.4794 26.1721 29.9819 25.6376 30.0311C24.4762 30.138 23.5942 29.2636 22.4693 28.5262C20.7091 27.3723 19.7146 26.654 18.006 25.528C16.0314 24.2268 17.3114 23.5116 18.4368 22.3428C18.7313 22.0369 23.8486 17.3823 23.9476 16.9601C23.96 16.9073 23.9715 16.7104 23.8546 16.6065C23.7376 16.5025 23.565 16.5381 23.4405 16.5663C23.2639 16.6064 20.4519 18.4651 15.0044 22.1423C14.2062 22.6904 13.4832 22.9574 12.8355 22.9434C12.1214 22.928 10.7477 22.5397 9.72654 22.2077C8.47404 21.8006 7.47858 21.5853 7.56526 20.8939C7.61041 20.5337 8.10637 20.1654 9.05313 19.7889Z" fill="white"/>
<defs>
<linearGradient id="paint0_linear_6245_2320" x1="20" y1="0" x2="20" y2="39.7032" gradientUnits="userSpaceOnUse">
<stop stop-color="#2AABEE"/>
<stop offset="1" stop-color="#229ED9"/>
</linearGradient>
</defs>
</svg>
